<mxfile host="app.diagrams.net" modified="2021-12-10T12:38:33.562Z" agent="5.0 (Macintosh; Intel Mac OS X 10_15_5) AppleWebKit/537.36 (KHTML, like Gecko) Chrome/95.0.4638.69 Safari/537.36 Edg/95.0.1020.44" etag="_p9WXmu4mED1OaivFKwx" version="15.9.4" type="github">
  <diagram id="51dJ9gH7P7qgkjwUIwsL" name="Page-1">
    <mxGraphModel dx="1298" dy="742" grid="1" gridSize="10" guides="1" tooltips="1" connect="1" arrows="1" fold="1" page="1" pageScale="1" pageWidth="827" pageHeight="1169" math="0" shadow="0">
      <root>
        <mxCell id="0" />
        <mxCell id="1" parent="0" />
        <mxCell id="ABUXH3rSY7tyzEH833zm-10" style="edgeStyle=orthogonalEdgeStyle;rounded=0;orthogonalLoop=1;jettySize=auto;html=1;" edge="1" parent="1" source="ABUXH3rSY7tyzEH833zm-1" target="ABUXH3rSY7tyzEH833zm-2">
          <mxGeometry relative="1" as="geometry" />
        </mxCell>
        <mxCell id="ABUXH3rSY7tyzEH833zm-1" value="增加印象标签" style="rounded=0;whiteSpace=wrap;html=1;" vertex="1" parent="1">
          <mxGeometry x="54" y="30" width="120" height="60" as="geometry" />
        </mxCell>
        <mxCell id="ABUXH3rSY7tyzEH833zm-11" style="edgeStyle=orthogonalEdgeStyle;rounded=0;orthogonalLoop=1;jettySize=auto;html=1;" edge="1" parent="1" source="ABUXH3rSY7tyzEH833zm-2" target="ABUXH3rSY7tyzEH833zm-7">
          <mxGeometry relative="1" as="geometry" />
        </mxCell>
        <mxCell id="ABUXH3rSY7tyzEH833zm-2" value="是否已有相同文字标签" style="rhombus;whiteSpace=wrap;html=1;" vertex="1" parent="1">
          <mxGeometry x="234" y="20" width="80" height="80" as="geometry" />
        </mxCell>
        <mxCell id="ABUXH3rSY7tyzEH833zm-6" value="结束" style="ellipse;whiteSpace=wrap;html=1;" vertex="1" parent="1">
          <mxGeometry x="684" y="35" width="90" height="50" as="geometry" />
        </mxCell>
        <mxCell id="ABUXH3rSY7tyzEH833zm-12" style="edgeStyle=orthogonalEdgeStyle;rounded=0;orthogonalLoop=1;jettySize=auto;html=1;exitX=1;exitY=0.5;exitDx=0;exitDy=0;" edge="1" parent="1" source="ABUXH3rSY7tyzEH833zm-7" target="ABUXH3rSY7tyzEH833zm-8">
          <mxGeometry relative="1" as="geometry" />
        </mxCell>
        <mxCell id="ABUXH3rSY7tyzEH833zm-13" style="edgeStyle=orthogonalEdgeStyle;rounded=0;orthogonalLoop=1;jettySize=auto;html=1;entryX=0;entryY=0.5;entryDx=0;entryDy=0;" edge="1" parent="1" source="ABUXH3rSY7tyzEH833zm-7" target="ABUXH3rSY7tyzEH833zm-9">
          <mxGeometry relative="1" as="geometry" />
        </mxCell>
        <mxCell id="ABUXH3rSY7tyzEH833zm-7" value="自增获得最大ID" style="rounded=0;whiteSpace=wrap;html=1;" vertex="1" parent="1">
          <mxGeometry x="354" y="30" width="120" height="60" as="geometry" />
        </mxCell>
        <mxCell id="ABUXH3rSY7tyzEH833zm-14" style="edgeStyle=orthogonalEdgeStyle;rounded=0;orthogonalLoop=1;jettySize=auto;html=1;exitX=1;exitY=0.5;exitDx=0;exitDy=0;entryX=0;entryY=0.5;entryDx=0;entryDy=0;" edge="1" parent="1" source="ABUXH3rSY7tyzEH833zm-8" target="ABUXH3rSY7tyzEH833zm-6">
          <mxGeometry relative="1" as="geometry" />
        </mxCell>
        <mxCell id="ABUXH3rSY7tyzEH833zm-8" value="添加到个人印象&lt;br&gt;标签列表" style="rounded=0;whiteSpace=wrap;html=1;" vertex="1" parent="1">
          <mxGeometry x="524" y="30" width="120" height="60" as="geometry" />
        </mxCell>
        <mxCell id="ABUXH3rSY7tyzEH833zm-9" value="记录ID对应的文本、创建人" style="rounded=0;whiteSpace=wrap;html=1;" vertex="1" parent="1">
          <mxGeometry x="524" y="100" width="120" height="60" as="geometry" />
        </mxCell>
        <mxCell id="ABUXH3rSY7tyzEH833zm-15" value="删除印象标签" style="rounded=0;whiteSpace=wrap;html=1;" vertex="1" parent="1">
          <mxGeometry x="54" y="310" width="120" height="60" as="geometry" />
        </mxCell>
      </root>
    </mxGraphModel>
  </diagram>
</mxfile>
